HIERARCHY
ROOT root
{
	OFFSET	0	13.1	24.9
	CHANNELS 6  Xposition Yposition Zposition Xrotation Yrotation Zrotation
	JOINT spine_1
	{
		OFFSET	0	9.99999	0
		CHANNELS 3  Xrotation Yrotation Zrotation
		JOINT spine_2
		{
			OFFSET	0	112	-10
			CHANNELS 3  Xrotation Yrotation Zrotation
			JOINT spine_3
			{
				OFFSET	0	206.5	19.3
				CHANNELS 3  Xrotation Yrotation Zrotation
				JOINT spine_4
				{
					OFFSET	0	110.4	14.6
					CHANNELS 3  Xrotation Yrotation Zrotation
					JOINT neck_1
					{
						OFFSET	0	71.8	-50.3
						CHANNELS 3  Xrotation Yrotation Zrotation
						JOINT neck_2
						{
							OFFSET	0	86.2	-25.8
							CHANNELS 3  Xrotation Yrotation Zrotation
							JOINT head_ee
							{
								OFFSET	0	179.8	-8.7
								CHANNELS 3  Xrotation Yrotation Zrotation
								End Site
								{
									OFFSET	1	0	0
								}
							}
						}
					}
					JOINT left_clavicle
					{
						OFFSET	-43.2	22.4	-70.8
						CHANNELS 3  Xrotation Yrotation Zrotation
						JOINT left_shoulder
						{
							OFFSET	-93.9	-5.79999	48.7
							CHANNELS 3  Xrotation Yrotation Zrotation
							JOINT left_elbow
							{
								OFFSET	-291.4	-30.8	15.2
								CHANNELS 3  Xrotation Yrotation Zrotation
								JOINT left_lowarm_twist
								{
									OFFSET	-110.7	-3.89999	13.6
									CHANNELS 3  Xrotation Yrotation Zrotation
									JOINT left_hand
									{
										OFFSET	-110.7	-3.89999	13.6
										CHANNELS 3  Xrotation Yrotation Zrotation
										JOINT left_ee
										{
											OFFSET	-80.8	-5.10001	12.1
											CHANNELS 3  Xrotation Yrotation Zrotation
											End Site
											{
												OFFSET	1	0	0
											}
										}
									}
								}
							}
						}
					}
					JOINT right_clavicle
					{
						OFFSET	43.2	22.4	-70.8
						CHANNELS 3  Xrotation Yrotation Zrotation
						JOINT right_shoulder
						{
							OFFSET	93.9	-5.79999	48.7
							CHANNELS 3  Xrotation Yrotation Zrotation
							JOINT right_elbow
							{
								OFFSET	291.4	-30.8	15.2
								CHANNELS 3  Xrotation Yrotation Zrotation
								JOINT right_lowarm_twist
								{
									OFFSET	110.7	-3.89999	13.6
									CHANNELS 3  Xrotation Yrotation Zrotation
									JOINT right_hand
									{
										OFFSET	110.7	-3.89999	13.6
										CHANNELS 3  Xrotation Yrotation Zrotation
										JOINT right_ee
										{
											OFFSET	80.8	-5.10001	12.1
											CHANNELS 3  Xrotation Yrotation Zrotation
											End Site
											{
												OFFSET	1	0	0
											}
										}
									}
								}
							}
						}
					}
				}
			}
		}
	}
	JOINT left_hip
	{
		OFFSET	-82.8	-127.5	0.300001
		CHANNELS 3  Xrotation Yrotation Zrotation
		JOINT left_knee
		{
			OFFSET	-28.2	-396.7	2.2
			CHANNELS 3  Xrotation Yrotation Zrotation
			JOINT left_ankle
			{
				OFFSET	-11.7	-411.3	35.4
				CHANNELS 3  Xrotation Yrotation Zrotation
				JOINT left_toes
				{
					OFFSET	0	-60	-88.6
					CHANNELS 3  Xrotation Yrotation Zrotation
					JOINT left_foot_ee
					{
						OFFSET	-22.5	-16.5	-42.2
						CHANNELS 3  Xrotation Yrotation Zrotation
						End Site
						{
							OFFSET	1	0	0
						}
					}
				}
			}
		}
	}
	JOINT right_hip
	{
		OFFSET	82.8	-127.5	0.300001
		CHANNELS 3  Xrotation Yrotation Zrotation
		JOINT right_knee
		{
			OFFSET	28.2	-396.7	2.2
			CHANNELS 3  Xrotation Yrotation Zrotation
			JOINT right_ankle
			{
				OFFSET	11.7	-411.3	35.4
				CHANNELS 3  Xrotation Yrotation Zrotation
				JOINT right_toes
				{
					OFFSET	0	-60	-88.6
					CHANNELS 3  Xrotation Yrotation Zrotation
					JOINT right_foot_ee
					{
						OFFSET	22.5	-16.5	-42.2
						CHANNELS 3  Xrotation Yrotation Zrotation
						End Site
						{
							OFFSET	1	0	0
						}
					}
				}
			}
		}
	}
}
MOTION
Frames: 5
Frame Time: 0.02
1065.66 719.786 -513.673 176.716 -55.932 177.182 -0.852508 0.122288 0.768142 -0.852183 0.0731628 0.774367 -0.850943 -0.102691 0.771007 -0.851772 0.0203606 0.777548 -7.31197 14.0584 13.1341 -6.87262 16.7387 15.8783 -0.0 0.0 -0.0 0.44547 22.9993 3.27923 3.8282 -12.2453 62.681 2.04573 -45.3758 0.855314 10.0878 0.24472 -1.26373 0.318507 1.72481 2.84287 -0.0 0.0 -0.0 10.261 17.034 -20.1762 -21.0296 38.4788 -53.8697 0.385841 10.8209 -0.0365438 20.6598 -0.259531 2.61208 3.79668 10.8861 -21.458 0.0 0.0 0.0 9.86518 33.408 -3.54801 -25.0807 0.200843 3.81298 35.353 5.74938 -4.43261 -2.14093 0.0 0.0 -0.0 0.0 -0.0 25.7916 26.9917 -10.6085 -65.7491 2.8517 -9.12699 -24.6458 -29.4709 -3.9665 -28.9282 0.0 0.0 0.0 0.0 0.0 
1085.27 721.857 -512.483 173.674 -56.4387 174.518 -1.17258 -0.0599126 0.774531 -1.17225 -0.109075 0.769149 -1.17353 -0.283189 0.723392 -1.17422 -0.165392 0.759035 -10.4181 13.1592 13.9361 -9.96676 15.4896 16.7701 -0.0 0.0 -0.0 0.511097 21.6847 3.24474 6.10883 -12.4468 61.9938 2.25618 -48.1732 1.00871 9.83293 0.241293 -1.23135 0.0858234 1.34313 1.13606 -0.0 0.0 -0.0 9.78929 15.6457 -19.1956 -21.6171 38.4492 -53.9622 0.3604 10.1227 -0.0319198 19.9152 -0.266637 2.51723 3.89187 9.97763 -22.5848 0.0 0.0 0.0 4.46973 26.8533 -0.508189 -24.1535 0.223258 3.67245 34.5933 8.44574 -4.36403 -3.52706 0.0 0.0 -0.0 0.0 -0.0 35.3477 31.2653 -19.0463 -61.0295 2.31218 -8.63788 -24.8917 -29.6068 -4.00972 -31.0487 0.0 0.0 0.0 0.0 0.0 
1095.83 723.593 -512.445 173.62 -55.1317 175.417 -1.20501 -0.0688292 0.541219 -1.20486 -0.103128 0.535743 -1.20574 -0.22395 0.497497 -1.20606 -0.142571 0.526621 -10.5958 13.4806 13.585 -10.1852 16.3974 16.536 -0.0 0.0 -0.0 1.77086 20.7486 4.97903 7.41656 -11.2488 58.485 2.3056 -48.789 1.04571 8.96849 0.228597 -1.12166 -0.115525 0.967995 -0.361937 -0.0 0.0 -0.0 9.17255 15.8355 -17.8217 -21.4172 39.1774 -55.0965 0.337622 9.49492 -0.0280392 20.0773 -0.265195 2.53789 3.78149 9.28219 -22.112 0.0 0.0 0.0 3.66657 25.9798 -0.831183 -23.12 0.245556 3.51543 33.0548 9.41947 -4.21408 -4.33323 0.0 0.0 -0.0 0.0 -0.0 38.1681 32.7019 -21.7911 -57.255 1.91099 -8.21613 -21.8255 -29.1543 -3.50397 -31.8841 0.0 0.0 0.0 0.0 0.0 
1107.35 727.979 -517.804 173.369 -55.1708 175.928 -1.33563 -0.0866667 0.387814 -1.33555 -0.111169 0.381514 -1.33627 -0.196976 0.345126 -1.3364 -0.139998 0.371903 -13.0212 12.9216 14.0752 -12.6139 15.7775 17.1534 -0.0 0.0 -0.0 2.61692 19.0665 6.14222 8.87072 -10.9338 56.69 2.4465 -50.465 1.15307 8.28503 0.217388 -1.03508 -0.253797 1.12948 -1.21421 -0.0 0.0 -0.0 8.74414 15.809 -16.8805 -22.2047 39.1352 -55.0134 0.296651 8.36008 -0.0216808 19.9604 -0.266241 2.52299 3.75373 8.38434 -22.3302 0.0 0.0 0.0 2.07591 25.124 -0.268671 -20.5726 0.288392 3.12692 30.0302 10.7223 -3.90373 -5.94666 0.0 0.0 -0.0 0.0 -0.0 40.3327 34.4825 -24.7568 -55.2905 1.71347 -7.98653 -19.1155 -28.3455 -3.05012 -31.8924 0.0 0.0 0.0 0.0 0.0 
1122.24 732.668 -522.346 172.842 -56.2248 174.983 -1.20982 -0.109503 0.291691 -1.20978 -0.127842 0.284132 -1.21041 -0.189965 0.246957 -1.21046 -0.148579 0.273859 -16.6195 11.8497 15.1702 -16.1565 14.1774 18.3274 -0.0 0.0 -0.0 3.3821 18.4659 7.28134 9.84672 -11.3873 55.4085 2.5403 -51.5186 1.22596 6.37017 0.180492 -0.793269 -0.416891 1.70057 -2.05562 -0.0 0.0 -0.0 8.36849 15.6134 -16.0683 -22.5902 38.6004 -55.7628 0.227351 6.42589 -0.0127624 20.3952 -0.262198 2.57838 3.71534 6.92188 -22.7223 0.0 0.0 0.0 -1.4729 22.7844 2.17608 -16.8799 0.319736 2.56131 28.3448 10.4882 -3.71836 -7.3316 0.0 0.0 -0.0 0.0 -0.0 42.9851 33.5979 -26.6882 -47.09 0.97828 -6.96073 -16.8026 -27.7434 -2.66767 -31.7011 0.0 0.0 0.0 0.0 0.0 
